<svg width="214" height="70" viewBox="0 0 214 70" fill="none" xmlns="http://www.w3.org/2000/svg">
<path d="M81.543 56.5085H78.7187L78.1985 57.9485H77.3066L79.6477 51.5103H80.6232L82.9551 57.9485H82.0632L81.543 56.5085ZM81.3014 55.821L80.1308 52.5508L78.9603 55.821H81.3014ZM86.075 52.7738C86.5148 52.7738 86.8988 52.8698 87.227 53.0618C87.5615 53.2538 87.8092 53.4953 87.9703 53.7864V52.8574H88.825V58.06C88.825 58.5245 88.7259 58.9364 88.5277 59.2956C88.3295 59.661 88.0446 59.9459 87.673 60.1503C87.3076 60.3547 86.8802 60.4569 86.3909 60.4569C85.722 60.4569 85.1646 60.2989 84.7187 59.9831C84.2727 59.6672 84.0095 59.2367 83.929 58.6917H84.7651C84.858 59.0014 85.05 59.2491 85.3411 59.4349C85.6322 59.6269 85.9821 59.7229 86.3909 59.7229C86.8554 59.7229 87.2332 59.5774 87.5243 59.2863C87.8216 58.9952 87.9703 58.5864 87.9703 58.06V56.9916C87.803 57.2889 87.5553 57.5366 87.227 57.7348C86.8988 57.933 86.5148 58.0321 86.075 58.0321C85.6229 58.0321 85.211 57.9206 84.8394 57.6976C84.474 57.4747 84.186 57.1619 83.9754 56.7593C83.7649 56.3567 83.6596 55.8984 83.6596 55.3844C83.6596 54.8641 83.7649 54.4089 83.9754 54.0187C84.186 53.6223 84.474 53.3157 84.8394 53.0989C85.211 52.8822 85.6229 52.7738 86.075 52.7738ZM87.9703 55.3936C87.9703 55.0096 87.8929 54.6752 87.738 54.3903C87.5832 54.1054 87.3726 53.8886 87.1063 53.74C86.8461 53.5851 86.5581 53.5077 86.2423 53.5077C85.9264 53.5077 85.6384 53.582 85.3783 53.7307C85.1181 53.8793 84.9107 54.0961 84.7558 54.381C84.601 54.6659 84.5236 55.0004 84.5236 55.3844C84.5236 55.7746 84.601 56.1152 84.7558 56.4063C84.9107 56.6912 85.1181 56.9111 85.3783 57.0659C85.6384 57.2146 85.9264 57.2889 86.2423 57.2889C86.5581 57.2889 86.8461 57.2146 87.1063 57.0659C87.3726 56.9111 87.5832 56.6912 87.738 56.4063C87.8929 56.1152 87.9703 55.7776 87.9703 55.3936ZM90.6903 52.0306C90.5293 52.0306 90.393 51.9748 90.2815 51.8633C90.17 51.7518 90.1143 51.6156 90.1143 51.4546C90.1143 51.2935 90.17 51.1573 90.2815 51.0458C90.393 50.9343 90.5293 50.8786 90.6903 50.8786C90.8451 50.8786 90.9752 50.9343 91.0805 51.0458C91.192 51.1573 91.2477 51.2935 91.2477 51.4546C91.2477 51.6156 91.192 51.7518 91.0805 51.8633C90.9752 51.9748 90.8451 52.0306 90.6903 52.0306ZM91.0991 52.8574V57.9485H90.2537V52.8574H91.0991ZM93.3854 51.0736V57.9485H92.54V51.0736H93.3854ZM95.2629 52.0306C95.1019 52.0306 94.9656 51.9748 94.8541 51.8633C94.7426 51.7518 94.6869 51.6156 94.6869 51.4546C94.6869 51.2935 94.7426 51.1573 94.8541 51.0458C94.9656 50.9343 95.1019 50.8786 95.2629 50.8786C95.4177 50.8786 95.5478 50.9343 95.6531 51.0458C95.7646 51.1573 95.8203 51.2935 95.8203 51.4546C95.8203 51.6156 95.7646 51.7518 95.6531 51.8633C95.5478 51.9748 95.4177 52.0306 95.2629 52.0306ZM95.6717 52.8574V57.9485H94.8262V52.8574H95.6717ZM98.1438 53.5542V56.5549C98.1438 56.8027 98.1964 56.9792 98.3017 57.0845C98.407 57.1836 98.5897 57.2331 98.8498 57.2331H99.4723V57.9485H98.7105C98.2398 57.9485 97.8867 57.8401 97.6514 57.6233C97.416 57.4066 97.2983 57.0504 97.2983 56.5549V53.5542H96.6387V52.8574H97.2983V51.5753H98.1438V52.8574H99.4723V53.5542H98.1438ZM104.882 52.8574L101.816 60.3454H100.943L101.946 57.8927L99.8927 52.8574H100.831L102.429 56.9823L104.008 52.8574H104.882ZM106.605 56.7779L105.564 59.277H104.998L105.676 56.7779H106.605ZM115.243 59.1748L113.952 57.8835C113.636 57.9702 113.314 58.0135 112.986 58.0135C112.385 58.0135 111.837 57.8742 111.341 57.5955C110.846 57.3106 110.453 56.9173 110.162 56.4156C109.877 55.9077 109.734 55.3379 109.734 54.7062C109.734 54.0744 109.877 53.5077 110.162 53.006C110.453 52.4982 110.846 52.1049 111.341 51.8262C111.837 51.5413 112.385 51.3988 112.986 51.3988C113.593 51.3988 114.144 51.5413 114.639 51.8262C115.135 52.1049 115.525 52.4951 115.81 52.9967C116.095 53.4984 116.237 54.0682 116.237 54.7062C116.237 55.3255 116.101 55.8829 115.829 56.3784C115.556 56.8739 115.181 57.2641 114.704 57.549L116.34 59.1748H115.243ZM110.598 54.7062C110.598 55.2202 110.7 55.6724 110.905 56.0626C111.115 56.4527 111.4 56.7531 111.759 56.9637C112.125 57.1743 112.534 57.2796 112.986 57.2796C113.438 57.2796 113.844 57.1743 114.203 56.9637C114.568 56.7531 114.853 56.4527 115.058 56.0626C115.268 55.6724 115.373 55.2202 115.373 54.7062C115.373 54.1859 115.268 53.7338 115.058 53.3498C114.853 52.9596 114.571 52.6592 114.212 52.4486C113.853 52.238 113.444 52.1327 112.986 52.1327C112.527 52.1327 112.119 52.238 111.759 52.4486C111.4 52.6592 111.115 52.9596 110.905 53.3498C110.7 53.7338 110.598 54.1859 110.598 54.7062ZM121.887 52.8574V57.9485H121.041V57.196C120.88 57.4561 120.654 57.6605 120.363 57.8091C120.078 57.9516 119.762 58.0228 119.415 58.0228C119.019 58.0228 118.663 57.9423 118.347 57.7813C118.031 57.614 117.78 57.3663 117.595 57.038C117.415 56.7098 117.325 56.3103 117.325 55.8396V52.8574H118.161V55.7281C118.161 56.2298 118.288 56.6169 118.542 56.8894C118.796 57.1557 119.143 57.2889 119.583 57.2889C120.035 57.2889 120.391 57.1495 120.651 56.8708C120.911 56.5921 121.041 56.1864 121.041 55.6538V52.8574H121.887ZM122.998 55.3844C122.998 54.8641 123.104 54.4089 123.314 54.0187C123.525 53.6223 123.813 53.3157 124.178 53.0989C124.55 52.8822 124.962 52.7738 125.414 52.7738C125.86 52.7738 126.247 52.8698 126.575 53.0618C126.903 53.2538 127.148 53.4953 127.309 53.7864V52.8574H128.164V57.9485H127.309V57.0009C127.142 57.2982 126.891 57.5459 126.556 57.7441C126.228 57.9361 125.844 58.0321 125.404 58.0321C124.952 58.0321 124.544 57.9206 124.178 57.6976C123.813 57.4747 123.525 57.1619 123.314 56.7593C123.104 56.3567 122.998 55.8984 122.998 55.3844ZM127.309 55.3936C127.309 55.0096 127.232 54.6752 127.077 54.3903C126.922 54.1054 126.711 53.8886 126.445 53.74C126.185 53.5851 125.897 53.5077 125.581 53.5077C125.265 53.5077 124.977 53.582 124.717 53.7307C124.457 53.8793 124.249 54.0961 124.095 54.381C123.94 54.6659 123.862 55.0004 123.862 55.3844C123.862 55.7746 123.94 56.1152 124.095 56.4063C124.249 56.6912 124.457 56.9111 124.717 57.0659C124.977 57.2146 125.265 57.2889 125.581 57.2889C125.897 57.2889 126.185 57.2146 126.445 57.0659C126.711 56.9111 126.922 56.6912 127.077 56.4063C127.232 56.1152 127.309 55.7776 127.309 55.3936ZM130.438 51.0736V57.9485H129.592V51.0736H130.438ZM132.315 52.0306C132.154 52.0306 132.018 51.9748 131.907 51.8633C131.795 51.7518 131.739 51.6156 131.739 51.4546C131.739 51.2935 131.795 51.1573 131.907 51.0458C132.018 50.9343 132.154 50.8786 132.315 50.8786C132.47 50.8786 132.6 50.9343 132.705 51.0458C132.817 51.1573 132.873 51.2935 132.873 51.4546C132.873 51.6156 132.817 51.7518 132.705 51.8633C132.6 51.9748 132.47 52.0306 132.315 52.0306ZM132.724 52.8574V57.9485H131.879V52.8574H132.724ZM135.196 53.5542V56.5549C135.196 56.8027 135.249 56.9792 135.354 57.0845C135.459 57.1836 135.642 57.2331 135.902 57.2331H136.525V57.9485H135.763C135.292 57.9485 134.939 57.8401 134.704 57.6233C134.468 57.4066 134.351 57.0504 134.351 56.5549V53.5542H133.691V52.8574H134.351V51.5753H135.196V52.8574H136.525V53.5542H135.196ZM141.934 52.8574L138.868 60.3454H137.995L138.998 57.8927L136.945 52.8574H137.883L139.481 56.9823L141.061 52.8574H141.934ZM143.657 56.7779L142.617 59.277H142.05L142.728 56.7779H143.657ZM146.787 54.7062C146.787 54.0744 146.929 53.5077 147.214 53.006C147.499 52.4982 147.886 52.1018 148.375 51.8169C148.871 51.532 149.419 51.3895 150.02 51.3895C150.726 51.3895 151.342 51.5598 151.868 51.9005C152.395 52.2411 152.779 52.7242 153.02 53.3498H152.008C151.828 52.9596 151.568 52.6592 151.227 52.4486C150.893 52.238 150.49 52.1327 150.02 52.1327C149.567 52.1327 149.162 52.238 148.803 52.4486C148.443 52.6592 148.162 52.9596 147.957 53.3498C147.753 53.7338 147.651 54.1859 147.651 54.7062C147.651 55.2202 147.753 55.6724 147.957 56.0626C148.162 56.4466 148.443 56.7438 148.803 56.9544C149.162 57.165 149.567 57.2703 150.02 57.2703C150.49 57.2703 150.893 57.1681 151.227 56.9637C151.568 56.7531 151.828 56.4527 152.008 56.0626H153.02C152.779 56.6819 152.395 57.1619 151.868 57.5026C151.342 57.837 150.726 58.0042 150.02 58.0042C149.419 58.0042 148.871 57.8649 148.375 57.5862C147.886 57.3013 147.499 56.908 147.214 56.4063C146.929 55.9046 146.787 55.3379 146.787 54.7062ZM156.499 58.0321C156.022 58.0321 155.589 57.9237 155.199 57.7069C154.815 57.4902 154.511 57.1836 154.288 56.7872C154.071 56.3846 153.963 55.9201 153.963 55.3936C153.963 54.8734 154.074 54.4151 154.297 54.0187C154.527 53.6161 154.836 53.3095 155.226 53.0989C155.617 52.8822 156.053 52.7738 156.536 52.7738C157.02 52.7738 157.456 52.8822 157.846 53.0989C158.237 53.3095 158.543 53.613 158.766 54.0094C158.995 54.4058 159.11 54.8672 159.11 55.3936C159.11 55.9201 158.992 56.3846 158.757 56.7872C158.528 57.1836 158.215 57.4902 157.818 57.7069C157.422 57.9237 156.982 58.0321 156.499 58.0321ZM156.499 57.2889C156.803 57.2889 157.088 57.2176 157.354 57.0752C157.62 56.9327 157.834 56.7191 157.995 56.4342C158.162 56.1493 158.246 55.8024 158.246 55.3936C158.246 54.9849 158.165 54.638 158.004 54.3531C157.843 54.0682 157.633 53.8576 157.373 53.7214C157.112 53.5789 156.831 53.5077 156.527 53.5077C156.217 53.5077 155.933 53.5789 155.672 53.7214C155.418 53.8576 155.214 54.0682 155.059 54.3531C154.904 54.638 154.827 54.9849 154.827 55.3936C154.827 55.8086 154.901 56.1586 155.05 56.4435C155.205 56.7284 155.409 56.942 155.663 57.0845C155.917 57.2207 156.196 57.2889 156.499 57.2889ZM166.344 52.7645C166.74 52.7645 167.093 52.8481 167.403 53.0153C167.712 53.1764 167.957 53.421 168.137 53.7493C168.316 54.0775 168.406 54.477 168.406 54.9477V57.9485H167.57V55.0685C167.57 54.5606 167.443 54.1735 167.189 53.9072C166.941 53.6347 166.604 53.4984 166.176 53.4984C165.737 53.4984 165.387 53.6409 165.127 53.9258C164.867 54.2045 164.736 54.6102 164.736 55.1428V57.9485H163.9V55.0685C163.9 54.5606 163.773 54.1735 163.519 53.9072C163.272 53.6347 162.934 53.4984 162.507 53.4984C162.067 53.4984 161.717 53.6409 161.457 53.9258C161.197 54.2045 161.067 54.6102 161.067 55.1428V57.9485H160.221V52.8574H161.067V53.5913C161.234 53.325 161.457 53.1206 161.736 52.9782C162.021 52.8357 162.333 52.7645 162.674 52.7645C163.101 52.7645 163.479 52.8605 163.807 53.0525C164.136 53.2445 164.38 53.5263 164.541 53.8979C164.684 53.5387 164.919 53.26 165.247 53.0618C165.576 52.8636 165.941 52.7645 166.344 52.7645ZM175.915 52.7645C176.312 52.7645 176.665 52.8481 176.974 53.0153C177.284 53.1764 177.529 53.421 177.708 53.7493C177.888 54.0775 177.978 54.477 177.978 54.9477V57.9485H177.142V55.0685C177.142 54.5606 177.015 54.1735 176.761 53.9072C176.513 53.6347 176.175 53.4984 175.748 53.4984C175.308 53.4984 174.958 53.6409 174.698 53.9258C174.438 54.2045 174.308 54.6102 174.308 55.1428V57.9485H173.472V55.0685C173.472 54.5606 173.345 54.1735 173.091 53.9072C172.843 53.6347 172.506 53.4984 172.078 53.4984C171.639 53.4984 171.289 53.6409 171.029 53.9258C170.768 54.2045 170.638 54.6102 170.638 55.1428V57.9485H169.793V52.8574H170.638V53.5913C170.806 53.325 171.029 53.1206 171.307 52.9782C171.592 52.8357 171.905 52.7645 172.246 52.7645C172.673 52.7645 173.051 52.8605 173.379 53.0525C173.707 53.2445 173.952 53.5263 174.113 53.8979C174.255 53.5387 174.491 53.26 174.819 53.0618C175.147 52.8636 175.513 52.7645 175.915 52.7645ZM179.801 52.0306C179.64 52.0306 179.504 51.9748 179.392 51.8633C179.281 51.7518 179.225 51.6156 179.225 51.4546C179.225 51.2935 179.281 51.1573 179.392 51.0458C179.504 50.9343 179.64 50.8786 179.801 50.8786C179.956 50.8786 180.086 50.9343 180.191 51.0458C180.303 51.1573 180.359 51.2935 180.359 51.4546C180.359 51.6156 180.303 51.7518 180.191 51.8633C180.086 51.9748 179.956 52.0306 179.801 52.0306ZM180.21 52.8574V57.9485H179.365V52.8574H180.21ZM182.682 53.5542V56.5549C182.682 56.8027 182.735 56.9792 182.84 57.0845C182.945 57.1836 183.128 57.2331 183.388 57.2331H184.011V57.9485H183.249C182.778 57.9485 182.425 57.8401 182.19 57.6233C181.954 57.4066 181.837 57.0504 181.837 56.5549V53.5542H181.177V52.8574H181.837V51.5753H182.682V52.8574H184.011V53.5542H182.682ZM191.157 52.7645C191.554 52.7645 191.907 52.8481 192.216 53.0153C192.526 53.1764 192.771 53.421 192.95 53.7493C193.13 54.0775 193.22 54.477 193.22 54.9477V57.9485H192.384V55.0685C192.384 54.5606 192.257 54.1735 192.003 53.9072C191.755 53.6347 191.417 53.4984 190.99 53.4984C190.55 53.4984 190.2 53.6409 189.94 53.9258C189.68 54.2045 189.55 54.6102 189.55 55.1428V57.9485H188.714V55.0685C188.714 54.5606 188.587 54.1735 188.333 53.9072C188.085 53.6347 187.748 53.4984 187.32 53.4984C186.881 53.4984 186.531 53.6409 186.271 53.9258C186.01 54.2045 185.88 54.6102 185.88 55.1428V57.9485H185.035V52.8574H185.88V53.5913C186.048 53.325 186.271 53.1206 186.549 52.9782C186.834 52.8357 187.147 52.7645 187.488 52.7645C187.915 52.7645 188.293 52.8605 188.621 53.0525C188.949 53.2445 189.194 53.5263 189.355 53.8979C189.497 53.5387 189.733 53.26 190.061 53.0618C190.389 52.8636 190.755 52.7645 191.157 52.7645ZM199.252 55.2078C199.252 55.3689 199.242 55.5392 199.224 55.7188H195.155C195.186 56.2205 195.356 56.6138 195.666 56.8987C195.981 57.1774 196.362 57.3167 196.808 57.3167C197.174 57.3167 197.477 57.2331 197.719 57.0659C197.966 56.8925 198.14 56.6633 198.239 56.3784H199.149C199.013 56.8677 198.741 57.2672 198.332 57.5769C197.923 57.8804 197.415 58.0321 196.808 58.0321C196.325 58.0321 195.892 57.9237 195.508 57.7069C195.13 57.4902 194.833 57.1836 194.616 56.7872C194.399 56.3846 194.291 55.9201 194.291 55.3936C194.291 54.8672 194.396 54.4058 194.606 54.0094C194.817 53.613 195.111 53.3095 195.489 53.0989C195.873 52.8822 196.313 52.7738 196.808 52.7738C197.291 52.7738 197.719 52.8791 198.09 53.0896C198.462 53.3002 198.747 53.5913 198.945 53.9629C199.149 54.3284 199.252 54.7433 199.252 55.2078ZM198.378 55.0313C198.378 54.7093 198.307 54.4336 198.165 54.2045C198.022 53.9691 197.827 53.7926 197.579 53.6749C197.338 53.5511 197.068 53.4891 196.771 53.4891C196.344 53.4891 195.978 53.6254 195.675 53.8979C195.378 54.1704 195.207 54.5482 195.164 55.0313H198.378ZM202.848 52.7645C203.467 52.7645 203.969 52.9534 204.353 53.3312C204.737 53.7028 204.929 54.2416 204.929 54.9477V57.9485H204.093V55.0685C204.093 54.5606 203.966 54.1735 203.712 53.9072C203.458 53.6347 203.111 53.4984 202.672 53.4984C202.226 53.4984 201.87 53.6378 201.603 53.9165C201.343 54.1952 201.213 54.6009 201.213 55.1335V57.9485H200.368V52.8574H201.213V53.582C201.38 53.3219 201.606 53.1206 201.891 52.9782C202.182 52.8357 202.501 52.7645 202.848 52.7645ZM207.341 53.5542V56.5549C207.341 56.8027 207.394 56.9792 207.499 57.0845C207.605 57.1836 207.787 57.2331 208.047 57.2331H208.67V57.9485H207.908C207.437 57.9485 207.084 57.8401 206.849 57.6233C206.614 57.4066 206.496 57.0504 206.496 56.5549V53.5542H205.836V52.8574H206.496V51.5753H207.341V52.8574H208.67V53.5542H207.341Z" fill="white"/>
<path fill-rule="evenodd" clip-rule="evenodd" d="M24.162 0.175126C-3.76094 3.0778 -7.84722 41.5383 13.8101 53.149C14.8997 50.6817 20.3481 29.347 20.6205 26.0089H11.6307L13.9463 16.5752H42.8226L40.6433 25.8638L31.5173 26.1541C30.019 29.347 27.0224 43.1347 25.9327 47.6339C24.162 54.8906 22.255 62.0021 20.6205 69.2588L37.7829 54.8906C64.2075 31.6692 52.7659 -1.13108 24.162 0.0299922V0.175126Z" fill="#E97636"/>
<path d="M59.6075 17.3507H76.4351V21.0564H69.9653V39.5242H66.1077V21.0564H59.6075V17.3507ZM80.5888 25.1266C82.2493 23.4458 84.254 22.6055 86.603 22.6055C88.9925 22.6055 91.0073 23.4458 92.6475 25.1266C94.2878 26.7871 95.1079 28.8019 95.1079 31.1711C95.1079 31.2319 95.0775 31.7483 95.0168 32.7202H81.986C82.2088 33.7732 82.7859 34.6541 83.7174 35.3628C84.6489 36.0513 85.7424 36.3956 86.9979 36.3956C88.8001 36.3956 90.248 35.7881 91.3414 34.5731L94.227 36.3956C93.4373 37.4283 92.3843 38.2484 91.0681 38.8559C89.7518 39.4634 88.3951 39.7672 86.9979 39.7672C84.4666 39.7672 82.3505 38.9369 80.6496 37.2764C78.9486 35.5957 78.0981 33.5606 78.0981 31.1711C78.0981 28.8222 78.9283 26.8073 80.5888 25.1266ZM81.986 29.8043H91.3718C91.2706 28.731 90.7744 27.8299 89.8835 27.1009C89.0127 26.3517 87.9294 25.9771 86.6334 25.9771C85.3779 25.9771 84.3148 26.3517 83.444 27.1009C82.5733 27.8502 82.0873 28.7513 81.986 29.8043ZM99.7517 25.0962C101.412 23.4357 103.437 22.6055 105.827 22.6055C107.224 22.6055 108.54 22.9295 109.775 23.5775C111.011 24.2255 112.033 25.1063 112.843 26.2201L109.836 28.2248C108.844 26.9288 107.507 26.2808 105.827 26.2808C104.45 26.2808 103.285 26.7567 102.334 27.7084C101.382 28.6602 100.906 29.8144 100.906 31.1711C100.906 32.5481 101.382 33.7125 102.334 34.6642C103.285 35.616 104.45 36.0918 105.827 36.0918C107.568 36.0918 108.935 35.3831 109.927 33.9656L112.904 35.9703C112.134 37.1448 111.122 38.0763 109.866 38.7648C108.611 39.433 107.264 39.7672 105.827 39.7672C103.437 39.7672 101.402 38.9268 99.7213 37.2461C98.0608 35.5653 97.2306 33.5404 97.2306 31.1711C97.2306 28.8019 98.0709 26.7769 99.7517 25.0962ZM115.88 15.8319H119.495V25.4303C119.981 24.5798 120.639 23.8913 121.469 23.3648C122.32 22.8383 123.292 22.5751 124.385 22.5751C126.41 22.5751 128.03 23.2838 129.245 24.7013C130.46 26.1188 131.067 28.2248 131.067 31.0193V39.5242H127.453V31.0193C127.453 29.3993 127.078 28.1843 126.329 27.3743C125.58 26.5441 124.628 26.1289 123.474 26.1289C122.32 26.1289 121.368 26.5441 120.619 27.3743C119.869 28.1843 119.495 29.3993 119.495 31.0193V39.5242H115.88V15.8319ZM138.331 39.5242H134.716V15.8319H138.331V39.5242ZM142.28 39.5242V22.8181H145.895V39.5242H142.28ZM141.946 19.1428C141.946 18.5555 142.159 18.0493 142.584 17.624C143.009 17.1785 143.515 16.9558 144.102 16.9558C144.69 16.9558 145.196 17.1785 145.621 17.624C146.046 18.0493 146.259 18.5555 146.259 19.1428C146.259 19.73 146.046 20.2362 145.621 20.6615C145.196 21.0867 144.69 21.2994 144.102 21.2994C143.515 21.2994 143.009 21.0867 142.584 20.6615C142.159 20.2362 141.946 19.73 141.946 19.1428ZM152.091 22.8181L156.374 34.0567L160.626 22.8181H164.514L158.136 39.5242H154.582L148.203 22.8181H152.091ZM166.811 39.5242V22.8181H170.426V39.5242H166.811ZM166.477 19.1428C166.477 18.5555 166.69 18.0493 167.115 17.624C167.54 17.1785 168.046 16.9558 168.634 16.9558C169.221 16.9558 169.727 17.1785 170.152 17.624C170.578 18.0493 170.79 18.5555 170.79 19.1428C170.79 19.73 170.578 20.2362 170.152 20.6615C169.727 21.0867 169.221 21.2994 168.634 21.2994C168.046 21.2994 167.54 21.0867 167.115 20.6615C166.69 20.2362 166.477 19.73 166.477 19.1428ZM176.015 25.0962C177.675 23.4357 179.7 22.6055 182.09 22.6055C184.439 22.6055 186.453 23.4458 188.134 25.1266C189.815 26.8073 190.655 28.8222 190.655 31.1711C190.655 33.5404 189.815 35.5653 188.134 37.2461C186.453 38.9268 184.439 39.7672 182.09 39.7672C179.7 39.7672 177.665 38.9268 175.984 37.2461C174.324 35.5653 173.494 33.5404 173.494 31.1711C173.494 28.8019 174.334 26.7769 176.015 25.0962ZM177.169 31.1711C177.169 32.5481 177.645 33.7125 178.596 34.6642C179.548 35.616 180.713 36.0918 182.09 36.0918C183.446 36.0918 184.601 35.616 185.552 34.6642C186.504 33.6922 186.98 32.5279 186.98 31.1711C186.98 29.8144 186.504 28.6602 185.552 27.7084C184.601 26.7567 183.446 26.2808 182.09 26.2808C180.713 26.2808 179.548 26.7567 178.596 27.7084C177.645 28.6602 177.169 29.8144 177.169 31.1711ZM193.686 39.5242V22.8181H196.996L197.209 25.5214C197.695 24.6507 198.363 23.942 199.214 23.3952C200.064 22.8485 201.057 22.5751 202.191 22.5751C204.215 22.5751 205.835 23.2838 207.05 24.7013C208.265 26.1188 208.873 28.2248 208.873 31.0193V39.5242H205.258V31.0193C205.258 29.3993 204.884 28.1843 204.134 27.3743C203.385 26.5441 202.434 26.1289 201.279 26.1289C200.125 26.1289 199.173 26.5441 198.424 27.3743C197.675 28.1843 197.3 29.3993 197.3 31.0193V39.5242H193.686Z" fill="white"/>
</svg>
